<svg version="1.1" id="Layer_1" xmlns="http://www.w3.org/2000/svg" xmlns:xlink="http://www.w3.org/1999/xlink" x="0px" y="0px"
	 width="100%" viewBox="0 0 512 512" enable-background="new 0 0 512 512" xml:space="preserve">
<path fill="#000000" opacity="1.000000" stroke="none" 
	d="
M307.000000,513.000000 
	C204.691513,513.000000 102.883018,513.000000 1.037265,513.000000 
	C1.037265,342.399811 1.037265,171.799637 1.037265,1.099719 
	C171.558502,1.099719 342.117065,1.099719 512.837830,1.099719 
	C512.837830,171.666534 512.837830,342.333252 512.837830,513.000000 
	C444.466278,513.000000 375.983124,513.000000 307.000000,513.000000 
M149.968277,430.366028 
	C150.971436,422.494812 151.113953,414.391754 153.159119,406.801270 
	C157.261383,391.576019 166.257858,379.335724 178.872726,369.811432 
	C182.116608,367.362335 185.572449,366.870850 189.045868,369.063629 
	C192.330276,371.137115 192.987518,374.570679 191.827637,377.867065 
	C191.124390,379.865723 189.196030,381.603851 187.472809,383.046692 
	C170.045227,397.638000 162.584671,416.133575 166.901016,438.504974 
	C172.468475,467.360718 197.701660,486.052856 227.109192,483.946716 
	C247.194153,482.508240 259.698792,469.171753 259.779053,449.021790 
	C259.829498,436.356201 259.789276,423.690308 259.789734,411.024536 
	C259.789795,409.119934 259.789703,407.215332 259.789703,404.612671 
	C258.474915,405.447418 257.912476,405.722748 257.445831,406.112701 
	C246.009064,415.669861 232.875244,419.563293 218.066879,418.079742 
	C212.384155,417.510376 208.679520,414.077942 209.127838,409.497742 
	C209.610046,404.571014 214.073380,401.625793 219.773483,402.472931 
	C237.980331,405.178925 257.476074,391.320831 258.768829,372.896515 
	C260.164703,353.002838 259.452789,332.961151 259.630951,312.983734 
	C259.633240,312.727783 259.248291,312.468384 258.846558,311.961212 
	C250.551956,311.961212 242.060669,311.946625 233.569443,311.964386 
	C218.338501,311.996246 211.453400,319.066925 211.769684,334.322693 
	C211.865631,338.950165 208.822266,342.615692 204.573441,342.990082 
	C200.167862,343.378265 196.615204,340.406982 195.998596,335.818512 
	C193.688034,318.624420 203.815567,302.617737 220.432648,297.709839 
	C224.193115,296.599152 228.255524,296.175964 232.195328,296.074890 
	C241.278564,295.841919 250.371826,296.000977 259.525940,296.000977 
	C259.525940,269.683044 259.525940,244.092911 259.525940,217.999084 
	C250.145218,217.999084 241.024628,218.007599 231.904053,217.997391 
	C210.208374,217.973099 194.842819,201.926590 195.886139,180.393326 
	C196.192505,174.069794 199.236862,170.694458 204.354706,171.004028 
	C209.363297,171.306992 212.077637,175.250626 211.536163,181.437881 
	C210.581451,192.346970 218.924438,201.806885 229.833984,201.977310 
	C238.664612,202.115280 247.498840,202.042908 256.331329,202.016190 
	C257.418274,202.012909 258.504272,201.715576 259.467468,201.572784 
	C259.615814,200.900330 259.746857,200.582687 259.747253,200.264877 
	C259.769623,183.099854 259.865784,165.934357 259.772980,148.769882 
	C259.644958,125.086998 242.133408,109.436188 218.541092,111.770157 
	C213.910156,112.228294 209.753998,109.107864 209.161316,104.727913 
	C208.587433,100.486816 212.025650,96.548332 216.836639,96.003426 
	C231.750809,94.314217 245.171555,97.878029 256.889374,107.423882 
	C257.579803,107.986328 258.372070,108.423729 259.794800,109.370331 
	C259.794800,94.442085 259.803192,80.333824 259.785309,66.225594 
	C259.782776,64.228874 259.810974,62.211765 259.555573,60.238964 
	C257.569702,44.898781 248.957748,34.377937 234.715668,31.402811 
	C212.287170,26.717560 192.974609,33.004627 178.425751,50.755146 
	C157.811249,75.906113 162.264877,110.457352 188.095840,131.359924 
	C192.526947,134.945602 193.569519,139.763458 190.709610,143.438522 
	C187.867004,147.091370 182.787674,147.287277 178.295929,143.710434 
	C159.882172,129.047318 150.186630,110.025002 149.994537,86.378685 
	C149.958694,81.967491 150.406860,77.552361 150.634064,73.091904 
	C123.061676,80.120407 99.650566,110.068398 98.942924,138.597870 
	C98.645729,150.579727 100.201271,162.113174 105.066940,173.108078 
	C106.878120,177.200775 106.085983,180.637268 102.526031,183.228317 
	C98.073128,186.469330 92.757736,184.769165 90.516838,178.983368 
	C87.902618,172.233704 85.902573,165.246170 83.643669,158.385056 
	C48.117191,178.708969 40.048851,228.814514 63.341034,258.445465 
	C72.847580,252.237961 83.075653,247.842239 94.565132,246.671753 
	C100.882614,246.028152 105.193176,248.416702 105.768555,253.480972 
	C106.277855,257.963684 102.831886,261.324890 96.929001,262.103088 
	C64.238708,266.412842 43.255875,297.336945 52.170116,328.631927 
	C56.783623,344.828400 67.239265,356.160645 82.289230,362.621185 
	C84.993759,353.305786 87.281311,344.348755 90.239861,335.619110 
	C92.179115,329.897003 96.564735,328.013031 101.096245,329.951294 
	C105.634674,331.892517 106.976830,336.141388 104.804276,341.666992 
	C93.879570,369.452576 97.751915,395.117188 116.355118,418.347748 
	C125.246506,429.450714 136.840973,436.876617 150.834213,441.216522 
	C150.518616,437.543213 150.251007,434.428467 149.968277,430.366028 
M292.501831,202.038498 
	C305.498962,202.038544 318.496124,202.013336 331.493164,202.048508 
	C338.821960,202.068344 341.927521,205.066055 341.935608,212.247009 
	C341.969238,242.073746 341.968567,271.900543 341.936249,301.727295 
	C341.928436,308.942291 338.845795,311.940094 331.536652,311.952393 
	C314.707062,311.980743 297.877380,311.961517 281.047760,311.961548 
	C279.273285,311.961548 277.498810,311.961548 275.582245,311.961548 
	C275.582245,319.615540 275.582245,326.693542 275.582245,333.991119 
	C277.155640,334.088531 278.457306,334.238739 279.759033,334.239441 
	C305.253418,334.253296 330.747833,334.265442 356.242188,334.239563 
	C363.337372,334.232361 364.165924,333.347687 364.167603,326.002350 
	C364.177979,280.012482 364.177917,234.022629 364.167816,188.032761 
	C364.166168,180.513474 363.406616,179.761063 355.784851,179.756226 
	C330.623718,179.740234 305.462616,179.744614 280.301483,179.763412 
	C278.722717,179.764587 277.144073,179.956528 275.664307,180.053238 
	C275.664307,187.677475 275.664307,194.742264 275.664307,202.038498 
	C281.188751,202.038498 286.345795,202.038498 292.501831,202.038498 
M326.001312,275.499817 
	C326.001312,256.411469 326.001312,237.323120 326.001312,218.408539 
	C308.726532,218.408539 292.172760,218.408539 275.604858,218.408539 
	C275.604858,244.411530 275.604858,270.001984 275.604858,295.702759 
	C292.498749,295.702759 309.069183,295.702759 326.001312,295.702759 
	C326.001312,289.105316 326.001312,282.802460 326.001312,275.499817 
M419.345032,166.198959 
	C422.897400,169.303268 426.698761,169.789032 430.623871,167.027390 
	C433.699158,164.863708 435.267120,161.844269 434.461639,158.043716 
	C433.640289,154.168549 431.361450,151.560089 427.282867,150.767395 
	C423.235931,149.980881 420.030548,151.368164 417.875793,154.728912 
	C415.458191,158.499695 415.873322,162.244965 419.345032,166.198959 
M433.587067,350.110077 
	C431.140167,346.605408 428.047729,344.374268 423.541992,345.507568 
	C418.437317,346.791565 415.479584,351.615173 416.698242,356.398193 
	C418.051971,361.711334 422.873840,364.529480 428.101654,363.062866 
	C433.261871,361.615234 435.490601,356.920044 433.587067,350.110077 
M302.203217,55.861115 
	C304.078094,60.541943 307.368378,63.139149 312.556854,62.350025 
	C316.745209,61.713009 319.415619,59.184025 320.004547,54.885754 
	C320.768219,49.312160 316.869446,44.492241 311.499573,44.187828 
	C305.986633,43.875309 302.106140,48.348198 302.203217,55.861115 
M306.437592,452.831299 
	C301.760803,456.689972 300.602600,460.555389 303.124512,464.869049 
	C305.341370,468.660950 308.694397,470.489166 313.142883,469.365112 
	C318.509735,468.009064 321.311615,463.125305 319.884399,457.899414 
	C318.481964,452.764313 313.469818,450.608521 306.437592,452.831299 
M459.115845,264.982941 
	C465.277679,259.913879 465.595642,253.038483 459.678192,249.359344 
	C455.928711,247.028107 452.080383,247.335403 448.655518,250.200363 
	C445.529694,252.815170 444.805237,257.876465 446.867218,261.496796 
	C449.232117,265.648956 452.579010,266.743652 459.115845,264.982941 
M383.401947,83.017853 
	C376.877594,84.066833 373.275391,88.084793 374.054871,93.443596 
	C374.764282,98.320694 379.308411,101.730949 384.465881,101.055008 
	C388.687256,100.501740 391.351074,98.028496 392.012482,93.787384 
	C392.859406,88.356689 390.482086,85.205536 383.401947,83.017853 
M377.476898,414.785797 
	C373.464081,419.277283 372.806732,423.315216 375.820190,427.133911 
	C378.503357,430.534088 381.973633,432.038727 386.314240,430.269775 
	C391.372803,428.208221 393.622070,422.899292 391.476166,418.069611 
	C389.217346,412.985779 384.138153,411.539642 377.476898,414.785797 
z"/>
<path fill="#FD646F" opacity="1.000000" stroke="none" 
	d="
M149.975830,430.839905 
	C150.251007,434.428467 150.518616,437.543213 150.834213,441.216522 
	C136.840973,436.876617 125.246506,429.450714 116.355118,418.347748 
	C97.751915,395.117188 93.879570,369.452576 104.804276,341.666992 
	C106.976830,336.141388 105.634674,331.892517 101.096245,329.951294 
	C96.564735,328.013031 92.179115,329.897003 90.239861,335.619110 
	C87.281311,344.348755 84.993759,353.305786 82.289230,362.621185 
	C67.239265,356.160645 56.783623,344.828400 52.170116,328.631927 
	C43.255875,297.336945 64.238708,266.412842 96.929001,262.103088 
	C102.831886,261.324890 106.277855,257.963684 105.768555,253.480972 
	C105.193176,248.416702 100.882614,246.028152 94.565132,246.671753 
	C83.075653,247.842239 72.847580,252.237961 63.341034,258.445465 
	C40.048851,228.814514 48.117191,178.708969 83.643669,158.385056 
	C85.902573,165.246170 87.902618,172.233704 90.516838,178.983368 
	C92.757736,184.769165 98.073128,186.469330 102.526031,183.228317 
	C106.085983,180.637268 106.878120,177.200775 105.066940,173.108078 
	C100.201271,162.113174 98.645729,150.579727 98.942924,138.597870 
	C99.650566,110.068398 123.061676,80.120407 150.634064,73.091904 
	C150.406860,77.552361 149.958694,81.967491 149.994537,86.378685 
	C150.186630,110.025002 159.882172,129.047318 178.295929,143.710434 
	C182.787674,147.287277 187.867004,147.091370 190.709610,143.438522 
	C193.569519,139.763458 192.526947,134.945602 188.095840,131.359924 
	C162.264877,110.457352 157.811249,75.906113 178.425751,50.755146 
	C192.974609,33.004627 212.287170,26.717560 234.715668,31.402811 
	C248.957748,34.377937 257.569702,44.898781 259.555573,60.238964 
	C259.810974,62.211765 259.782776,64.228874 259.785309,66.225594 
	C259.803192,80.333824 259.794800,94.442085 259.794800,109.370331 
	C258.372070,108.423729 257.579803,107.986328 256.889374,107.423882 
	C245.171555,97.878029 231.750809,94.314217 216.836639,96.003426 
	C212.025650,96.548332 208.587433,100.486816 209.161316,104.727913 
	C209.753998,109.107864 213.910156,112.228294 218.541092,111.770157 
	C242.133408,109.436188 259.644958,125.086998 259.772980,148.769882 
	C259.865784,165.934357 259.769623,183.099854 259.747253,200.264877 
	C259.746857,200.582687 259.615814,200.900330 259.467468,201.572784 
	C258.504272,201.715576 257.418274,202.012909 256.331329,202.016190 
	C247.498840,202.042908 238.664612,202.115280 229.833984,201.977310 
	C218.924438,201.806885 210.581451,192.346970 211.536163,181.437881 
	C212.077637,175.250626 209.363297,171.306992 204.354706,171.004028 
	C199.236862,170.694458 196.192505,174.069794 195.886139,180.393326 
	C194.842819,201.926590 210.208374,217.973099 231.904053,217.997391 
	C241.024628,218.007599 250.145218,217.999084 259.525940,217.999084 
	C259.525940,244.092911 259.525940,269.683044 259.525940,296.000977 
	C250.371826,296.000977 241.278564,295.841919 232.195328,296.074890 
	C228.255524,296.175964 224.193115,296.599152 220.432648,297.709839 
	C203.815567,302.617737 193.688034,318.624420 195.998596,335.818512 
	C196.615204,340.406982 200.167862,343.378265 204.573441,342.990082 
	C208.822266,342.615692 211.865631,338.950165 211.769684,334.322693 
	C211.453400,319.066925 218.338501,311.996246 233.569443,311.964386 
	C242.060669,311.946625 250.551956,311.961212 258.846558,311.961212 
	C259.248291,312.468384 259.633240,312.727783 259.630951,312.983734 
	C259.452789,332.961151 260.164703,353.002838 258.768829,372.896515 
	C257.476074,391.320831 237.980331,405.178925 219.773483,402.472931 
	C214.073380,401.625793 209.610046,404.571014 209.127838,409.497742 
	C208.679520,414.077942 212.384155,417.510376 218.066879,418.079742 
	C232.875244,419.563293 246.009064,415.669861 257.445831,406.112701 
	C257.912476,405.722748 258.474915,405.447418 259.789703,404.612671 
	C259.789703,407.215332 259.789795,409.119934 259.789734,411.024536 
	C259.789276,423.690308 259.829498,436.356201 259.779053,449.021790 
	C259.698792,469.171753 247.194153,482.508240 227.109192,483.946716 
	C197.701660,486.052856 172.468475,467.360718 166.901016,438.504974 
	C162.584671,416.133575 170.045227,397.638000 187.472809,383.046692 
	C189.196030,381.603851 191.124390,379.865723 191.827637,377.867065 
	C192.987518,374.570679 192.330276,371.137115 189.045868,369.063629 
	C185.572449,366.870850 182.116608,367.362335 178.872726,369.811432 
	C166.257858,379.335724 157.261383,391.576019 153.159119,406.801270 
	C151.113953,414.391754 150.971436,422.494812 149.975830,430.839905 
M160.398239,215.033310 
	C158.466339,213.749557 156.601746,212.346985 154.588776,211.206314 
	C150.128891,208.679031 145.630035,209.560898 143.163391,213.302322 
	C140.632568,217.141098 141.732056,221.405258 146.075150,224.473389 
	C147.021652,225.142014 148.057037,225.683777 149.014603,226.337967 
	C165.884781,237.863022 170.503250,261.114380 158.634842,277.731201 
	C155.265427,282.448700 150.145767,285.967072 145.625824,289.795776 
	C141.973648,292.889496 140.812698,296.637817 142.916672,300.290375 
	C145.084137,304.053192 149.486176,305.288696 153.725677,303.257233 
	C154.915344,302.687195 156.047012,301.975739 157.146835,301.241577 
	C186.858582,281.408630 189.665680,238.774643 160.398239,215.033310 
z"/>
<path fill="#6CF4C1" opacity="1.000000" stroke="none" 
	d="
M292.002350,202.038498 
	C286.345795,202.038498 281.188751,202.038498 275.664307,202.038498 
	C275.664307,194.742264 275.664307,187.677475 275.664307,180.053238 
	C277.144073,179.956528 278.722717,179.764587 280.301483,179.763412 
	C305.462616,179.744614 330.623718,179.740234 355.784851,179.756226 
	C363.406616,179.761063 364.166168,180.513474 364.167816,188.032761 
	C364.177917,234.022629 364.177979,280.012482 364.167603,326.002350 
	C364.165924,333.347687 363.337372,334.232361 356.242188,334.239563 
	C330.747833,334.265442 305.253418,334.253296 279.759033,334.239441 
	C278.457306,334.238739 277.155640,334.088531 275.582245,333.991119 
	C275.582245,326.693542 275.582245,319.615540 275.582245,311.961548 
	C277.498810,311.961548 279.273285,311.961548 281.047760,311.961548 
	C297.877380,311.961517 314.707062,311.980743 331.536652,311.952393 
	C338.845795,311.940094 341.928436,308.942291 341.936249,301.727295 
	C341.968567,271.900543 341.969238,242.073746 341.935608,212.247009 
	C341.927521,205.066055 338.821960,202.068344 331.493164,202.048508 
	C318.496124,202.013336 305.498962,202.038544 292.002350,202.038498 
z"/>
<path fill="#03D98C" opacity="1.000000" stroke="none" 
	d="
M326.001312,275.999695 
	C326.001312,282.802460 326.001312,289.105316 326.001312,295.702759 
	C309.069183,295.702759 292.498749,295.702759 275.604858,295.702759 
	C275.604858,270.001984 275.604858,244.411530 275.604858,218.408539 
	C292.172760,218.408539 308.726532,218.408539 326.001312,218.408539 
	C326.001312,237.323120 326.001312,256.411469 326.001312,275.999695 
z"/>
<path fill="#F9DC74" opacity="1.000000" stroke="none" 
	d="
M419.078552,165.932861 
	C415.873322,162.244965 415.458191,158.499695 417.875793,154.728912 
	C420.030548,151.368164 423.235931,149.980881 427.282867,150.767395 
	C431.361450,151.560089 433.640289,154.168549 434.461639,158.043716 
	C435.267120,161.844269 433.699158,164.863708 430.623871,167.027390 
	C426.698761,169.789032 422.897400,169.303268 419.078552,165.932861 
z"/>
<path fill="#F9DC74" opacity="1.000000" stroke="none" 
	d="
M433.756134,350.452271 
	C435.490601,356.920044 433.261871,361.615234 428.101654,363.062866 
	C422.873840,364.529480 418.051971,361.711334 416.698242,356.398193 
	C415.479584,351.615173 418.437317,346.791565 423.541992,345.507568 
	C428.047729,344.374268 431.140167,346.605408 433.756134,350.452271 
z"/>
<path fill="#F9DC74" opacity="1.000000" stroke="none" 
	d="
M302.126190,55.471035 
	C302.106140,48.348198 305.986633,43.875309 311.499573,44.187828 
	C316.869446,44.492241 320.768219,49.312160 320.004547,54.885754 
	C319.415619,59.184025 316.745209,61.713009 312.556854,62.350025 
	C307.368378,63.139149 304.078094,60.541943 302.126190,55.471035 
z"/>
<path fill="#F9DC74" opacity="1.000000" stroke="none" 
	d="
M306.734589,452.601257 
	C313.469818,450.608521 318.481964,452.764313 319.884399,457.899414 
	C321.311615,463.125305 318.509735,468.009064 313.142883,469.365112 
	C308.694397,470.489166 305.341370,468.660950 303.124512,464.869049 
	C300.602600,460.555389 301.760803,456.689972 306.734589,452.601257 
z"/>
<path fill="#6AF0BE" opacity="1.000000" stroke="none" 
	d="
M458.742859,265.121002 
	C452.579010,266.743652 449.232117,265.648956 446.867218,261.496796 
	C444.805237,257.876465 445.529694,252.815170 448.655518,250.200363 
	C452.080383,247.335403 455.928711,247.028107 459.678192,249.359344 
	C465.595642,253.038483 465.277679,259.913879 458.742859,265.121002 
z"/>
<path fill="#6AF0BE" opacity="1.000000" stroke="none" 
	d="
M383.799988,83.033081 
	C390.482086,85.205536 392.859406,88.356689 392.012482,93.787384 
	C391.351074,98.028496 388.687256,100.501740 384.465881,101.055008 
	C379.308411,101.730949 374.764282,98.320694 374.054871,93.443596 
	C373.275391,88.084793 376.877594,84.066833 383.799988,83.033081 
z"/>
<path fill="#6AF0BE" opacity="1.000000" stroke="none" 
	d="
M377.769287,414.518005 
	C384.138153,411.539642 389.217346,412.985779 391.476166,418.069611 
	C393.622070,422.899292 391.372803,428.208221 386.314240,430.269775 
	C381.973633,432.038727 378.503357,430.534088 375.820190,427.133911 
	C372.806732,423.315216 373.464081,419.277283 377.769287,414.518005 
z"/>
<path fill="#020101" opacity="1.000000" stroke="none" 
	d="
M160.672943,215.264282 
	C189.665680,238.774643 186.858582,281.408630 157.146835,301.241577 
	C156.047012,301.975739 154.915344,302.687195 153.725677,303.257233 
	C149.486176,305.288696 145.084137,304.053192 142.916672,300.290375 
	C140.812698,296.637817 141.973648,292.889496 145.625824,289.795776 
	C150.145767,285.967072 155.265427,282.448700 158.634842,277.731201 
	C170.503250,261.114380 165.884781,237.863022 149.014603,226.337967 
	C148.057037,225.683777 147.021652,225.142014 146.075150,224.473389 
	C141.732056,221.405258 140.632568,217.141098 143.163391,213.302322 
	C145.630035,209.560898 150.128891,208.679031 154.588776,211.206314 
	C156.601746,212.346985 158.466339,213.749557 160.672943,215.264282 
z"/>
</svg>